<svg width="218" height="221" viewBox="0 0 218 221" fill="none" xmlns="http://www.w3.org/2000/svg">
<path d="M53.3094 78.2038L47.2 72.0944L55.5269 63.7675L34.8002 43.0408L32.6279 57.7034L25.6134 50.6889L27.9214 37.5197L35.3885 30.0527L62.3151 56.9793L68.9223 50.3721L75.0317 56.4815L53.3094 78.2038Z" fill="white"/>
<path d="M47 126.567H38.36V114.792H9.048L17.88 126.695H7.96L0.279999 115.751V105.191H38.36V95.8475H47V126.567Z" fill="white"/>
<path d="M141.969 58.3094L148.078 52.2L156.405 60.5269L177.132 39.8002L162.469 37.6279L169.484 30.6134L182.653 32.9214L190.12 40.3885L163.193 67.3151L169.801 73.9223L163.691 80.0317L141.969 58.3094Z" fill="white"/>
<path d="M122.567 174.264L122.567 182.904H110.792V212.216L122.695 203.384V213.304L111.751 220.984H101.191V182.904H91.8475L91.8475 174.264H122.567Z" fill="white"/>
<path d="M108.513 48.64C105.398 48.64 102.689 48.064 100.385 46.912C98.0805 45.7173 96.2885 44.0747 95.0085 41.984C93.7712 39.8507 93.1525 37.376 93.1525 34.56V14.72C93.1525 11.904 93.7712 9.45066 95.0085 7.36C96.2885 5.22666 98.0805 3.584 100.385 2.432C102.689 1.23733 105.398 0.639999 108.513 0.639999C111.67 0.639999 114.379 1.23733 116.641 2.432C118.945 3.584 120.715 5.22666 121.953 7.36C123.233 9.45066 123.873 11.904 123.873 14.72V34.56C123.873 37.376 123.233 39.8507 121.953 41.984C120.715 44.0747 118.945 45.7173 116.641 46.912C114.379 48.064 111.67 48.64 108.513 48.64ZM108.513 40.32C110.518 40.32 112.075 39.808 113.185 38.784C114.337 37.76 114.913 36.352 114.913 34.56V14.72C114.913 12.928 114.337 11.52 113.185 10.496C112.075 9.472 110.518 8.96 108.513 8.96C106.507 8.96 104.929 9.472 103.777 10.496C102.667 11.52 102.113 12.928 102.113 14.72V34.56C102.113 36.352 102.689 37.76 103.841 38.784C104.993 39.808 106.55 40.32 108.513 40.32ZM108.513 29.056C107.19 29.056 106.102 28.6293 105.249 27.776C104.438 26.9227 104.033 25.8133 104.033 24.448C104.033 23.0827 104.438 21.9947 105.249 21.184C106.102 20.3733 107.19 19.968 108.513 19.968C109.878 19.968 110.966 20.3733 111.777 21.184C112.587 21.9947 112.993 23.0827 112.993 24.448C112.993 25.8133 112.587 26.9227 111.777 27.776C110.966 28.6293 109.878 29.056 108.513 29.056Z" fill="white"/>
<path d="M169.624 112.513C169.624 109.398 170.2 106.689 171.352 104.385C172.546 102.081 174.189 100.289 176.28 99.0085C178.413 97.7712 180.888 97.1525 183.704 97.1525H203.544C206.36 97.1525 208.813 97.7712 210.904 99.0085C213.037 100.289 214.68 102.081 215.832 104.385C217.026 106.689 217.624 109.398 217.624 112.513C217.624 115.67 217.026 118.379 215.832 120.641C214.68 122.945 213.037 124.715 210.904 125.953C208.813 127.233 206.36 127.873 203.544 127.873H183.704C180.888 127.873 178.413 127.233 176.28 125.953C174.189 124.715 172.546 122.945 171.352 120.641C170.2 118.379 169.624 115.67 169.624 112.513ZM177.944 112.513C177.944 114.518 178.456 116.075 179.48 117.185C180.504 118.337 181.912 118.913 183.704 118.913H203.544C205.336 118.913 206.744 118.337 207.768 117.185C208.792 116.075 209.304 114.518 209.304 112.513C209.304 110.507 208.792 108.929 207.768 107.777C206.744 106.667 205.336 106.113 203.544 106.113H183.704C181.912 106.113 180.504 106.689 179.48 107.841C178.456 108.993 177.944 110.55 177.944 112.513ZM189.208 112.513C189.208 111.19 189.634 110.102 190.488 109.249C191.341 108.438 192.45 108.033 193.816 108.033C195.181 108.033 196.269 108.438 197.08 109.249C197.89 110.102 198.296 111.19 198.296 112.513C198.296 113.878 197.89 114.966 197.08 115.777C196.269 116.587 195.181 116.993 193.816 116.993C192.45 116.993 191.341 116.587 190.488 115.777C189.634 114.966 189.208 113.878 189.208 112.513Z" fill="white"/>
<path d="M152.455 157.472C154.657 155.27 156.98 153.761 159.424 152.947C161.898 152.162 164.327 152.057 166.71 152.63C169.093 153.264 171.281 154.576 173.272 156.567L187.301 170.596C189.292 172.587 190.589 174.76 191.193 177.113C191.796 179.527 191.691 181.955 190.876 184.399C190.092 186.873 188.598 189.211 186.396 191.413C184.163 193.646 181.825 195.139 179.381 195.894C176.938 196.708 174.524 196.799 172.141 196.165C169.757 195.592 167.57 194.31 165.579 192.319L151.55 178.29C149.558 176.298 148.261 174.096 147.658 171.682C147.054 169.329 147.145 166.916 147.929 164.442C148.714 162.028 150.222 159.705 152.455 157.472ZM158.338 163.355C156.92 164.773 156.181 166.237 156.12 167.745C156.03 169.284 156.618 170.687 157.885 171.954L171.914 185.983C173.181 187.25 174.584 187.838 176.123 187.748C177.631 187.687 179.095 186.948 180.513 185.53C181.931 184.112 182.685 182.634 182.775 181.095C182.836 179.587 182.232 178.199 180.965 176.932L166.936 162.903C165.669 161.636 164.266 161.047 162.728 161.138C161.189 161.228 159.726 161.968 158.338 163.355ZM166.303 171.32C167.238 170.385 168.309 169.917 169.516 169.917C170.692 169.948 171.763 170.445 172.729 171.411C173.694 172.376 174.177 173.432 174.177 174.579C174.147 175.755 173.664 176.811 172.729 177.747C171.763 178.712 170.707 179.195 169.561 179.195C168.415 179.195 167.359 178.712 166.393 177.747C165.428 176.781 164.93 175.71 164.9 174.533C164.87 173.357 165.337 172.286 166.303 171.32Z" fill="white"/>
<path d="M65.7003 159.455C67.9027 161.657 69.4112 163.98 70.2258 166.424C71.0102 168.898 71.1158 171.327 70.5426 173.71C69.909 176.093 68.5966 178.281 66.6054 180.272L52.5764 194.301C50.5852 196.292 48.413 197.589 46.0597 198.193C43.6461 198.796 41.2175 198.691 38.7737 197.876C36.2998 197.092 33.9616 195.598 31.7592 193.396C29.5266 191.163 28.0332 188.825 27.279 186.381C26.4644 183.938 26.3739 181.524 27.0074 179.141C27.5807 176.757 28.8629 174.57 30.8541 172.579L44.8831 158.55C46.8743 156.558 49.0767 155.261 51.4903 154.658C53.8436 154.054 56.2571 154.145 58.7311 154.929C61.1447 155.714 63.4678 157.222 65.7003 159.455ZM59.8172 165.338C58.3992 163.92 56.936 163.181 55.4275 163.12C53.8888 163.03 52.4859 163.618 51.2188 164.885L37.1898 178.914C35.9226 180.181 35.3343 181.584 35.4248 183.123C35.4852 184.631 36.2243 186.095 37.6423 187.513C39.0603 188.931 40.5386 189.685 42.0773 189.775C43.5858 189.836 44.9736 189.232 46.2407 187.965L60.2697 173.936C61.5369 172.669 62.1252 171.266 62.0347 169.728C61.9442 168.189 61.205 166.726 59.8172 165.338ZM51.8523 173.303C52.7876 174.238 53.2552 175.309 53.2552 176.516C53.2251 177.692 52.7273 178.763 51.7618 179.729C50.7964 180.694 49.7405 181.177 48.594 181.177C47.4174 181.147 46.3614 180.664 45.4262 179.729C44.4607 178.763 43.978 177.707 43.978 176.561C43.978 175.415 44.4607 174.359 45.4262 173.393C46.3916 172.428 47.4626 171.93 48.6393 171.9C49.8159 171.87 50.8869 172.337 51.8523 173.303Z" fill="white"/>
</svg>
